<?xml version="1.0" ?><svg id="Icons" viewBox="0 0 60 60" xmlns="http://www.w3.org/2000/svg"><defs><style>.cls-1{fill:#80624b;}.cls-2{fill:#346d92;}.cls-3{fill:#eebd91;}.cls-4{fill:#31b5a5;}.cls-5{fill:#373737;}</style></defs><path class="cls-1" d="M17.86,13.07a5.935,5.935,0,0,1-2.86-5,13.513,13.513,0,0,1,1.57-6.81.5.5,0,0,1,.8-.11C18.28,2.11,21.3,4,31,4A17,17,0,0,1,48,21a21.653,21.653,0,0,1-4,13,14.87,14.87,0,0,0-2.35,4.77L36,39Z"/><path class="cls-2" d="M42.53,49.27a8.7,8.7,0,0,0,2.02,2.22C46.8,53.21,48.69,54.7,49,57.9A1.01,1.01,0,0,1,48,59H19a1,1,0,0,1-1-1V57c0-5,7-7,7-7Z"/><path class="cls-3" d="M42.53,49.27c-4.43,3.39-10.62,4.37-14.33,4.64A2.993,2.993,0,0,1,25,50.92V50a10.252,10.252,0,0,0-2.06-5.84,25.848,25.848,0,0,1-6.08.84C15.25,45,13,43,13,39a14.515,14.515,0,0,1,1-6V32a1.116,1.116,0,0,0-1.09-1,1.9,1.9,0,0,1-1.84-1.32,1.846,1.846,0,0,1,.9-2.14,11.884,11.884,0,0,0,4.05-3.42,4.016,4.016,0,0,0,.43-3.52A8.555,8.555,0,0,1,16,18a7.387,7.387,0,0,1,1.86-4.93,6.046,6.046,0,0,0,3.21.93h4.94A4,4,0,0,1,30,18v6.06a.939.939,0,0,0,.94.94H34a3,3,0,1,1,5.79,1.1A9.746,9.746,0,0,0,39,29.53a2.54,2.54,0,0,1-.08.6,2.486,2.486,0,0,1-1.81,1.8,2.57,2.57,0,0,1-1.03.03c.02.15.04.31.07.49v.01a9.406,9.406,0,0,0,.79,2.42,6.843,6.843,0,0,0,4.71,3.89,17.645,17.645,0,0,0-.69,4.99A10.413,10.413,0,0,0,42.53,49.27Z"/><path class="cls-4" d="M25,35v8.57a21.088,21.088,0,0,1-2.06.59,25.848,25.848,0,0,1-6.08.84c-1.14,0-2.6-1-3.35-3a7.644,7.644,0,0,1-.45-2A8.022,8.022,0,0,1,13,39c0-.35.01-.68.02-1a17.7,17.7,0,0,1,.19-2A10.783,10.783,0,0,1,14,33h9A2.006,2.006,0,0,1,25,35Z"/><path class="cls-5" d="M17,57v1a2,2,0,0,0,2,2H48a2,2,0,0,0,1.472-.647,2.03,2.03,0,0,0,.523-1.549c-.355-3.674-2.633-5.42-4.836-7.108a8.741,8.741,0,0,1-3.2-6.935q0-.363.014-.722A1,1,0,0,0,41.011,42a.983.983,0,0,0-1.038.96c-.011.265-.016.532-.016.8a11.46,11.46,0,0,0,1.267,5.209c-4.259,2.891-9.969,3.711-13.1,3.939a1.939,1.939,0,0,1-1.481-.522A2.008,2.008,0,0,1,26,50.92v-.927a10.592,10.592,0,0,0-1.478-5.224c.264-.08.544-.171.837-.271l.046-.016a23.16,23.16,0,0,0,11.215-8.13,7.719,7.719,0,0,0,4.791,3.389,1,1,0,0,0,1.2-.689A13.835,13.835,0,0,1,44.8,34.6,22.648,22.648,0,0,0,49,21,18.02,18.02,0,0,0,31,3C21.259,3,18.66,1.06,18.093.462a1.5,1.5,0,0,0-1.264-.45A1.516,1.516,0,0,0,15.7.762,14.489,14.489,0,0,0,14,8.076a6.839,6.839,0,0,0,2.448,5.191A8.4,8.4,0,0,0,15,18a9.605,9.605,0,0,0,.5,2.907,3,3,0,0,1-.3,2.644,10.8,10.8,0,0,1-3.7,3.107,2.847,2.847,0,0,0-1.391,3.3A2.9,2.9,0,0,0,12.909,32c.028,0,.09.05.092,0v.8a14.717,14.717,0,0,0-.9,4.158c0,.016-.009.03-.009.047s0,.011,0,.017C12.04,37.624,12,38.27,12,39c0,4.323,2.522,7,4.86,7a25.194,25.194,0,0,0,5.637-.711,9.394,9.394,0,0,1,1.467,4C22.006,50.017,17,52.323,17,57Zm9-14.877V35a3,3,0,0,0-.235-1.165l7.709-7.005A.969.969,0,0,0,34,27a1,1,0,0,0,1-1V25a2,2,0,1,1,3.857.739A10.763,10.763,0,0,0,38,29.531a1.618,1.618,0,0,1-.053.367,1.487,1.487,0,0,1-1.053,1.056,1.588,1.588,0,0,1-.636.023h-.014a1.5,1.5,0,0,1-1.214-1.17,1,1,0,0,0-1.961.392A3.5,3.5,0,0,0,35.2,32.735a11.446,11.446,0,0,0,.416,1.54A20.759,20.759,0,0,1,26,42.123ZM17.152,2.3C18.831,3.625,22.6,5,31,5A16.018,16.018,0,0,1,47,21a20.661,20.661,0,0,1-3.8,12.4,15.486,15.486,0,0,0-2.194,4.117,5.991,5.991,0,0,1-3.3-3.347h0a8.576,8.576,0,0,1-.421-1.252l.063-.014a3.466,3.466,0,0,0,2.546-2.53A3.572,3.572,0,0,0,40,29.539a8.9,8.9,0,0,1,.72-3.069,4,4,0,0,0-6.289-4.539,3.979,3.979,0,0,0-1.31,2.088L31,24.062V18a5,5,0,0,0-4.989-5H21.07a5.048,5.048,0,0,1-2.684-.781A4.911,4.911,0,0,1,16,8.068,13.182,13.182,0,0,1,17.152,2.3ZM12.91,30a.9.9,0,0,1-.876-.585.847.847,0,0,1,.412-1,12.781,12.781,0,0,0,4.4-3.733,4.987,4.987,0,0,0,.556-4.4A7.636,7.636,0,0,1,17,18a6.3,6.3,0,0,1,1.133-3.653A7.006,7.006,0,0,0,21.07,15h4.941A3,3,0,0,1,29,18v6.061A1.942,1.942,0,0,0,30.94,26h.471l-7.005,6.365A2.959,2.959,0,0,0,23,32H15A2.1,2.1,0,0,0,12.91,30Zm1.7,12H17a1,1,0,0,0,0-2H14.068A8.638,8.638,0,0,1,14,39c0-.351.01-.682.024-1H18a1,1,0,0,0,0-2H14.222a12.938,12.938,0,0,1,.463-2H23a1,1,0,0,1,1,1v7.837c-.49.149-.928.266-1.287.35h-.005A24.952,24.952,0,0,1,16.86,44,3.046,3.046,0,0,1,14.605,42Zm9.447,9.417a3.951,3.951,0,0,0,3.929,3.5c.1,0,.195,0,.291-.011,3.32-.242,9.384-1.119,14.026-4.244a9.456,9.456,0,0,0,1.64,1.621c2.351,1.8,3.8,3.039,4.058,5.716H19V57C19,53.984,22.227,52.191,24.052,51.417Z"/></svg>